<svg xmlns="http://www.w3.org/2000/svg"
     style="background-color:white;position:absolute;top:0;left:0;height:100%;width:100%;pointer-events:none"
     viewBox="210 100 1200 745">
  <g style="pointer-events:visiblePainted" transform="matrix(2.48832 0 0 2.48832 422.752 102.152)"
     image-rendering="auto" shape-rendering="auto">
    <rect rx="2" ry="2" fill="#FF8C00" stroke="#FFF" stroke-width="1px" transform="translate(75 245)" height="30"
          width="30"></rect>
    <rect rx="2" ry="2" fill="#FF8C00" stroke="#FFF" stroke-width="1px" transform="translate(75 25)" height="30"
          width="30"></rect>
    <rect rx="2" ry="2" fill="#FF8C00" stroke="#FFF" stroke-width="1px" transform="translate(25 75)" height="30"
          width="30"></rect>
    <rect rx="2" ry="2" fill="#FF8C00" stroke="#FFF" stroke-width="1px" transform="translate(245 75)" height="30"
          width="30"></rect>
    <rect rx="2" ry="2" fill="#FF8C00" stroke="#FFF" stroke-width="1px" transform="translate(115 245)" height="30"
          width="30"></rect>
    <rect rx="2" ry="2" fill="#FF8C00" stroke="#FFF" stroke-width="1px" transform="translate(115 25)" height="30"
          width="30"></rect>
    <rect rx="2" ry="2" fill="#FF8C00" stroke="#FFF" stroke-width="1px" transform="translate(25 115)" height="30"
          width="30"></rect>
    <rect rx="2" ry="2" fill="#FF8C00" stroke="#FFF" stroke-width="1px" transform="translate(245 115)" height="30"
          width="30"></rect>
    <rect rx="2" ry="2" fill="#FF8C00" stroke="#FFF" stroke-width="1px" transform="translate(155 245)" height="30"
          width="30"></rect>
    <rect rx="2" ry="2" fill="#FF8C00" stroke="#FFF" stroke-width="1px" transform="translate(155 25)" height="30"
          width="30"></rect>
    <rect rx="2" ry="2" fill="#FF8C00" stroke="#FFF" stroke-width="1px" transform="translate(25 155)" height="30"
          width="30"></rect>
    <rect rx="2" ry="2" fill="#FF8C00" stroke="#FFF" stroke-width="1px" transform="translate(245 155)" height="30"
          width="30"></rect>
    <rect rx="2" ry="2" fill="#FF8C00" stroke="#FFF" stroke-width="1px" transform="translate(195 245)" height="30"
          width="30"></rect>
    <rect rx="2" ry="2" fill="#FF8C00" stroke="#FFF" stroke-width="1px" transform="translate(195 25)" height="30"
          width="30"></rect>
    <rect rx="2" ry="2" fill="#FF8C00" stroke="#FFF" stroke-width="1px" transform="translate(25 195)" height="30"
          width="30"></rect>
    <rect rx="2" ry="2" fill="#FF8C00" stroke="#FFF" stroke-width="1px" transform="translate(245 195)" height="30"
          width="30"></rect>
    <g>
      <path fill="none" stroke="rgb(89,126,176)" d="M 90,245 L 90,55" stroke-opacity="1" stroke-width="1"
            stroke-linecap="butt" stroke-linejoin="miter" stroke-miterlimit="10"></path>
    </g>
    <g>
      <path fill="none" stroke="rgb(89,126,176)" d="M 95,245 L 95,55" stroke-opacity="1" stroke-width="1"
            stroke-linecap="butt" stroke-linejoin="miter" stroke-miterlimit="10"></path>
    </g>
    <g>
      <path fill="none" stroke="rgb(89,126,176)" d="M 130,55 L 130,245" stroke-opacity="1" stroke-width="1"
            stroke-linecap="butt" stroke-linejoin="miter" stroke-miterlimit="10"></path>
    </g>
    <g>
      <path fill="none" stroke="rgb(89,126,176)"
            d="M 55,90 L 85,90 Q 85,85 90,85 L 95,85 Q 100,85 100,90 L 125,90 Q 125,85 130,85 Q 135,85 135,90 L 165,90 Q 165,85 170,85 Q 175,85 175,90 L 205,90 Q 205,85 210,85 Q 215,85 215,90 L 245,90"
            stroke-opacity="1" stroke-width="1" stroke-linecap="butt" stroke-linejoin="miter"
            stroke-miterlimit="10"></path>
    </g>
    <g>
      <path fill="none" stroke="rgb(89,126,176)"
            d="M 245,130 L 215,130 Q 215,125 210,125 Q 205,125 205,130 L 175,130 Q 175,125 170,125 Q 165,125 165,130 L 135,130 Q 135,125 130,125 Q 125,125 125,130 L 100,130 Q 100,125 95,125 L 90,125 Q 85,125 85,130 L 55,130"
            stroke-opacity="1" stroke-width="1" stroke-linecap="butt" stroke-linejoin="miter"
            stroke-miterlimit="10"></path>
    </g>
    <g>
      <path fill="none" stroke="rgb(89,126,176)"
            d="M 55,170 L 85,170 Q 85,165 90,165 L 95,165 Q 100,165 100,170 L 125,170 Q 125,165 130,165 Q 135,165 135,170 L 165,170 Q 165,165 170,165 Q 175,165 175,170 L 205,170 Q 205,165 210,165 Q 215,165 215,170 L 245,170"
            stroke-opacity="1" stroke-width="1" stroke-linecap="butt" stroke-linejoin="miter"
            stroke-miterlimit="10"></path>
    </g>
    <g>
      <path fill="none" stroke="rgb(89,126,176)"
            d="M 245,210 L 215,210 Q 215,205 210,205 Q 205,205 205,210 L 175,210 Q 175,205 170,205 Q 165,205 165,210 L 135,210 Q 135,205 130,205 Q 125,205 125,210 L 100,210 Q 100,205 95,205 L 90,205 Q 85,205 85,210 L 55,210"
            stroke-opacity="1" stroke-width="1" stroke-linecap="butt" stroke-linejoin="miter"
            stroke-miterlimit="10"></path>
    </g>
    <g>
      <path fill="none" stroke="rgb(89,126,176)" d="M 170,245 L 170,55" stroke-opacity="1" stroke-width="1"
            stroke-linecap="butt" stroke-linejoin="miter" stroke-miterlimit="10"></path>
    </g>
    <g>
      <path fill="none" stroke="rgb(89,126,176)" d="M 210,55 L 210,245" stroke-opacity="1" stroke-width="1"
            stroke-linecap="butt" stroke-linejoin="miter" stroke-miterlimit="10"></path>
    </g>
  </g>
  <defs></defs>
</svg>
