<svg xmlns="http://www.w3.org/2000/svg" width="144" height="144" viewBox="0 0 38.1 38.1"><path d="m.66 7.63.02 3.87a5.52 5.52 0 0 0 2.78 4.77l3.37 1.92c1.7.98 3.81.97 5.51-.02l3.35-1.96c1.7-1 2.74-2.82 2.74-4.79l-.02-3.88a5.51 5.51 0 0 0-2.78-4.76L12.26.86a5.52 5.52 0 0 0-5.51.02L3.4 2.84A5.51 5.51 0 0 0 .66 7.63" style="fill:#242265" transform="matrix(2 0 0 2 -.04 -.002)"/><path d="M5.9 8.25c-.27 0-.52.01-.76-.05-.47-.13-.78-.41-.9-.89-.13-.55.22-1.13.76-1.28.4-.1.76 0 1.07.25.22.17.36.4.5.64.13.22.25.45.4.65.19.25.42.45.69.61.26.17.53.33.81.47.41.2.84.31 1.3.26.43-.05.81-.22 1.18-.44l.49-.29c.37-.23.66-.54.89-.92.14-.24.26-.48.42-.7.2-.28.45-.47.78-.54a1.1 1.1 0 0 1 1.27.65c.23.59-.07 1.22-.66 1.46-.2.08-.4.12-.62.12h-.57c-.32 0-.63.04-.93.15a13.15 13.15 0 0 0-1.16.63 2.26 2.26 0 0 0-1.08 1.72c-.03.29-.02.57-.02.86 0 .3.02.6.11.89.07.22.17.43.28.63.15.27.33.53.43.83.1.31.1.62-.04.92-.18.36-.46.57-.86.62-.36.05-.67-.07-.92-.32-.26-.27-.35-.6-.3-.97.04-.35.22-.64.4-.93.18-.3.34-.61.41-.97a6.79 6.79 0 0 0 .06-1.18 2.3 2.3 0 0 0-.63-1.72 3.33 3.33 0 0 0-.7-.53c-.22-.13-.43-.25-.65-.36-.3-.15-.62-.23-.96-.26Z" style="fill:#f16322" transform="matrix(2 0 0 2 -.04 -.002)"/></svg>