<?xml version="1.0" encoding="UTF-8"?>
<svg id="Ebene_2" data-name="Ebene 2" xmlns="http://www.w3.org/2000/svg" width="406.45" height="111.87" viewBox="0 0 406.45 111.87">
  <g id="yFiles_Logos" data-name="yFiles Logos">
    <g id="ract_flow_2zeilig" data-name="ract flow 2zeilig">
      <g id="yFiles_react_supply_2zeilig" data-name="yFiles react supply 2zeilig">
        <g id="yFiles">
          <g id="yFiles-2" data-name="yFiles">
            <path d="M0,37.57l.11,19.41c.06,9.86,5.37,18.94,13.94,23.82l16.87,9.61c8.56,4.88,19.09,4.81,27.59-.16l16.76-9.81c8.51-4.98,13.72-14.12,13.66-23.98l-.11-19.41c-.06-9.86-5.37-18.94-13.94-23.81L58.01,3.62c-8.56-4.88-19.08-4.81-27.59.16L13.66,13.58C5.15,18.57-.06,27.71,0,37.57" fill="#242265" stroke-width="0"/>
            <g>
              <g>
                <path d="M54.17,66.18c.78,1.06,1.55,2.02,2.01,3.16.88,2.26.67,4.36-.91,6.25-1.8,2.16-5.18,2.45-7.38.7-1.63-1.29-2.25-3.02-2.18-5.03.05-1.39.58-2.65,1.13-3.89.51-1.16,1.06-2.31,1.43-3.52.44-1.49.54-3.02.43-4.57-.11-1.56-.26-3.13-.53-4.66-.38-2.24-1.21-4.27-2.79-5.99-1.46-1.6-3.29-2.62-5.24-3.45-.86-.36-1.71-.76-2.59-1.11-2.05-.82-4.15-1.08-6.33-.86-1.37.14-2.73.36-4.11.37-1.66.01-3.18-.44-4.46-1.54-1.9-1.62-2.58-4.66-1.09-7.01,1.67-2.67,5.1-3.36,7.81-1.67.91.57,1.67,1.29,2.31,2.17.55.76,1.11,1.52,1.67,2.28.94,1.27,2.04,2.39,3.34,3.28.92.63,1.95,1.09,2.97,1.55.99.45,2,.88,3.01,1.27,1.77.69,3.61,1.02,5.51.79,1.64-.2,3.2-.68,4.62-1.53,1.21-.73,2.35-1.59,3.49-2.44,1.2-.89,2.35-1.86,3.26-3.08.69-.93,1.23-1.96,1.71-3.01.65-1.41,1.14-2.9,2.08-4.16.97-1.31,2.21-2.24,3.82-2.54,1.96-.37,3.67.15,5.05,1.61,1.24,1.31,1.68,2.9,1.39,4.63-.3,1.81-1.36,3.18-2.99,4.07-1.53.85-3.23,1-4.93,1.15-1.75.16-3.49.41-5.11,1.17-.57.27-1.1.59-1.63.91-1.15.7-2.25,1.5-3.3,2.34-1.37,1.08-2.71,2.2-3.6,3.75-.69,1.2-1.22,2.46-1.45,3.83-.25,1.49-.21,2.98-.05,4.47.13,1.21.24,2.44.45,3.65.3,1.65.9,3.19,1.79,4.61.43.75.97,1.42,1.38,2.05" fill="#242265" stroke-width="0"/>
                <path d="M59.11,54.36c1.31.2,2.53.32,3.65.81,2.22.97,3.56,2.61,3.77,5.06.24,2.8-1.94,5.39-4.72,5.72-2.08.24-3.72-.54-5.1-2.03-.95-1.02-1.46-2.28-1.96-3.55-.45-1.18-.87-2.39-1.47-3.5-.74-1.36-1.74-2.52-2.93-3.54-1.18-1.02-2.4-2.03-3.68-2.93-1.86-1.31-3.88-2.16-6.21-2.27-2.18-.1-4.18.47-6.15,1.27-.87.35-1.75.67-2.62,1.04-2.03.86-3.7,2.18-5.08,3.87-.87,1.06-1.67,2.19-2.65,3.17-1.17,1.18-2.56,1.94-4.24,2.07-2.49.19-5.12-1.48-5.74-4.18-.7-3.07,1.23-5.99,4.34-6.71,1.05-.24,2.11-.27,3.16-.1.93.15,1.87.29,2.8.43,1.56.23,3.13.24,4.67-.04,1.1-.2,2.15-.6,3.2-1,1.02-.38,2.03-.78,3.03-1.22,1.74-.76,3.27-1.82,4.46-3.34,1.02-1.3,1.77-2.75,2.18-4.35.34-1.37.53-2.79.74-4.18.22-1.48.35-2.98.13-4.47-.17-1.15-.51-2.26-.91-3.34-.54-1.45-1.23-2.85-1.47-4.41-.24-1.61-.02-3.14.91-4.49,1.12-1.64,2.7-2.49,4.71-2.43,1.8.05,3.25.86,4.26,2.29,1.07,1.5,1.28,3.21.77,4.99-.48,1.68-1.57,3-2.68,4.3-1.13,1.35-2.19,2.76-2.79,4.44-.21.59-.36,1.19-.51,1.8-.32,1.31-.52,2.65-.68,3.99-.2,1.73-.36,3.47.11,5.19.36,1.34.87,2.61,1.68,3.74.88,1.23,1.96,2.25,3.13,3.2.95.77,1.9,1.55,2.9,2.26,1.38.96,2.89,1.61,4.53,2,.86.19,1.71.28,2.45.43" fill="#242265" stroke-width="0"/>
              </g>
              <g>
                <path d="M54.17,66.18c.78,1.06,1.55,2.02,2.01,3.16.88,2.26.67,4.36-.91,6.25-1.8,2.16-5.18,2.45-7.38.7-1.63-1.29-2.25-3.02-2.18-5.03.05-1.39.58-2.65,1.13-3.89.51-1.16,1.06-2.31,1.43-3.52.44-1.49.54-3.02.43-4.57-.11-1.56-.26-3.13-.53-4.66-.38-2.24-1.21-4.27-2.79-5.99-1.46-1.6-3.29-2.62-5.24-3.45-.86-.36-1.71-.76-2.59-1.11-2.05-.82-4.15-1.08-6.33-.86-1.37.14-2.73.36-4.11.37-1.66.01-3.18-.44-4.46-1.54-1.9-1.62-2.58-4.66-1.09-7.01,1.67-2.67,5.1-3.36,7.81-1.67.91.57,1.67,1.29,2.31,2.17.55.76,1.11,1.52,1.67,2.28.94,1.27,2.04,2.39,3.34,3.28.92.63,1.95,1.09,2.97,1.55.99.45,2,.88,3.01,1.27,1.77.69,3.61,1.02,5.51.79,1.64-.2,3.2-.68,4.62-1.53,1.21-.73,2.35-1.59,3.49-2.44,1.2-.89,2.35-1.86,3.26-3.08.69-.93,1.23-1.96,1.71-3.01.65-1.41,1.14-2.9,2.08-4.16.97-1.31,2.21-2.24,3.82-2.54,1.96-.37,3.67.15,5.05,1.61,1.24,1.31,1.68,2.9,1.39,4.63-.3,1.81-1.36,3.18-2.99,4.07-1.53.85-3.23,1-4.93,1.15-1.75.16-3.49.41-5.11,1.17-.57.27-1.1.59-1.63.91-1.15.7-2.25,1.5-3.3,2.34-1.37,1.08-2.71,2.2-3.6,3.75-.69,1.2-1.22,2.46-1.45,3.83-.25,1.49-.21,2.98-.05,4.47.13,1.21.24,2.44.45,3.65.3,1.65.9,3.19,1.79,4.61.43.75.97,1.42,1.38,2.05" fill="#00d8ff" stroke-width="0"/>
                <path d="M59.11,54.36c1.31.2,2.53.32,3.65.81,2.22.97,3.56,2.61,3.77,5.06.24,2.8-1.94,5.39-4.72,5.72-2.08.24-3.72-.54-5.1-2.03-.95-1.02-1.46-2.28-1.96-3.55-.45-1.18-.87-2.39-1.47-3.5-.74-1.36-1.74-2.52-2.93-3.54-1.18-1.02-2.4-2.03-3.68-2.93-1.86-1.31-3.88-2.16-6.21-2.27-2.18-.1-4.18.47-6.15,1.27-.87.35-1.75.67-2.62,1.04-2.03.86-3.7,2.18-5.08,3.87-.87,1.06-1.67,2.19-2.65,3.17-1.17,1.18-2.56,1.94-4.24,2.07-2.49.19-5.12-1.48-5.74-4.18-.7-3.07,1.23-5.99,4.34-6.71,1.05-.24,2.11-.27,3.16-.1.93.15,1.87.29,2.8.43,1.56.23,3.13.24,4.67-.04,1.1-.2,2.15-.6,3.2-1,1.02-.38,2.03-.78,3.03-1.22,1.74-.76,3.27-1.82,4.46-3.34,1.02-1.3,1.77-2.75,2.18-4.35.34-1.37.53-2.79.74-4.18.22-1.48.35-2.98.13-4.47-.17-1.15-.51-2.26-.91-3.34-.54-1.45-1.23-2.85-1.47-4.41-.24-1.61-.02-3.14.91-4.49,1.12-1.64,2.7-2.49,4.71-2.43,1.8.05,3.25.86,4.26,2.29,1.07,1.5,1.28,3.21.77,4.99-.48,1.68-1.57,3-2.68,4.3-1.13,1.35-2.19,2.76-2.79,4.44-.21.59-.36,1.19-.51,1.8-.32,1.31-.52,2.65-.68,3.99-.2,1.73-.36,3.47.11,5.19.36,1.34.87,2.61,1.68,3.74.88,1.23,1.96,2.25,3.13,3.2.95.77,1.9,1.55,2.9,2.26,1.38.96,2.89,1.61,4.53,2,.86.19,1.71.28,2.45.43" fill="#00d8ff" stroke-width="0"/>
              </g>
            </g>
          </g>
          <g>
            <path d="M130.48,37.89v.16l-13.94,35.13h-6.15v-.11l5.25-12.14-10.12-22.89v-.16h6.25l5.03,12.08c.58,1.43,1.11,2.86,1.59,4.61.48-1.75.95-3.18,1.43-4.61l4.61-12.08h6.04Z" fill="#242265" stroke-width="0"/>
            <path d="M135.36,25.49h22.52v5.78h-16.27v10.39h14.57v5.62h-14.57v14.26h-6.25V25.49Z" fill="#242265" stroke-width="0"/>
            <path d="M162.39,29.51c0-1.91,1.38-3.44,3.6-3.44s3.6,1.54,3.6,3.5-1.43,3.39-3.6,3.39-3.6-1.54-3.6-3.45ZM163.08,37.89h5.78v23.64h-5.78v-23.64Z" fill="#242265" stroke-width="0"/>
            <path d="M175.64,23.37h5.78l.05,38.16h-5.83V23.37Z" fill="#242265" stroke-width="0"/>
            <path d="M209.71,48.86c0,.85-.11,1.8-.21,2.76h-16.96c.74,3.82,3.71,5.83,7.53,5.83,2.7,0,4.61-.79,6.25-2.23l2.44,3.71c-2.7,2.17-5.56,3.29-9.22,3.29-7.58,0-12.77-5.14-12.77-12.56,0-6.94,5.03-12.4,12.19-12.4,6.68,0,10.76,4.5,10.76,11.61ZM192.6,47.69h11.66c-.16-3.76-2.38-5.72-5.41-5.72s-5.62,2.07-6.25,5.72Z" fill="#242265" stroke-width="0"/>
            <path d="M213.06,59.46l2.28-4.08c2.01,1.27,4.24,1.96,6.47,1.96s3.5-.95,3.5-2.44c0-1.75-2.23-2.6-4.56-3.5-3.76-1.43-6.68-3.39-6.68-7.26,0-4.35,3.87-6.62,8.37-6.62,2.7,0,5.19.64,7.74,2.12l-2.01,3.87c-1.75-.9-3.66-1.38-5.25-1.38-1.8,0-3.34.53-3.34,2.01s1.75,2.44,4.29,3.34c4.13,1.54,7.1,3.5,7.1,7.42,0,4.4-3.55,7.15-8.74,7.15-3.5,0-6.41-.85-9.17-2.6Z" fill="#242265" stroke-width="0"/>
            <path d="M247.88,23.37h5.78l.05,38.16h-5.83V23.37Z" fill="#242265" stroke-width="0"/>
            <path d="M279.67,46.26v15.26h-3.87l-1.06-3.55c-1.75,2.49-4.56,4.03-8.43,4.03-4.35,0-7.42-2.44-7.42-6.62,0-5.41,4.77-8.37,11.98-8.37,1.22,0,2.12.05,2.97.11v-1.06c0-2.44-1.8-3.66-4.82-3.66-2.33,0-4.93.74-7.37,1.91l-1.64-4.4c3.5-1.59,6.73-2.44,9.91-2.44,6.04,0,9.75,3.07,9.75,8.8ZM274,50.87c-.95-.11-1.7-.16-2.76-.16-4.19,0-6.62,1.48-6.62,4.08,0,1.85,1.27,2.86,3.39,2.86,3.39,0,5.88-2.49,5.99-6.78Z" fill="#242265" stroke-width="0"/>
            <path d="M308.19,37.89v.16l-13.94,35.13h-6.15v-.11l5.25-12.14-10.12-22.89v-.16h6.25l5.03,12.08c.58,1.43,1.11,2.86,1.59,4.61.48-1.75.95-3.18,1.43-4.61l4.61-12.08h6.04Z" fill="#242265" stroke-width="0"/>
            <path d="M310.57,49.71c0-7.31,5.25-12.45,12.67-12.45s12.72,5.14,12.72,12.45-5.3,12.51-12.72,12.51-12.67-5.19-12.67-12.51ZM330.08,49.71c0-4.35-2.76-7.37-6.84-7.37s-6.84,3.02-6.84,7.37,2.81,7.37,6.84,7.37,6.84-3.02,6.84-7.37Z" fill="#242265" stroke-width="0"/>
            <path d="M362.19,37.89v23.64h-4.03l-1.17-3.66c-1.59,2.54-4.19,4.13-7.53,4.13-5.72,0-8.53-3.66-8.53-9.49v-14.63h5.83v14.1c0,2.92,1.11,4.82,4.13,4.82,3.6,0,5.51-3.07,5.51-6.68v-12.24h5.78Z" fill="#242265" stroke-width="0"/>
            <path d="M370.73,54.32v-11.5l-4.19-.32v-4.61h4.19l.16-7.58h5.62v7.58h7.31v4.93h-7.31v10.92c0,2.33,1.06,3.02,2.6,3.02,1.38,0,2.65-.37,3.97-1.22l1.85,4.35c-2.17,1.38-4.45,2.17-7.15,2.17-4.24,0-7.05-2.44-7.05-7.74Z" fill="#242265" stroke-width="0"/>
            <path d="M386.95,59.46l2.28-4.08c2.01,1.27,4.24,1.96,6.46,1.96s3.5-.95,3.5-2.44c0-1.75-2.23-2.6-4.56-3.5-3.76-1.43-6.68-3.39-6.68-7.26,0-4.35,3.87-6.62,8.37-6.62,2.7,0,5.19.64,7.74,2.12l-2.01,3.87c-1.75-.9-3.66-1.38-5.25-1.38-1.8,0-3.34.53-3.34,2.01s1.75,2.44,4.29,3.34c4.13,1.54,7.1,3.5,7.1,7.42,0,4.4-3.55,7.15-8.74,7.15-3.5,0-6.41-.85-9.17-2.6Z" fill="#242265" stroke-width="0"/>
          </g>
        </g>
        <g>
          <path d="M108.56,88.92h-3.12v-1.82h3.12v-4.27c0-2.93,1.53-5.38,4.85-5.38,1.59,0,2.71.47,3.87,1.31l-.95,1.48c-.85-.57-1.59-.88-2.68-.88-1.83,0-3.02,1.18-3.02,3.47v4.27h4.92v1.82h-4.92v13.05h-2.07v-13.05Z" fill="#242265" stroke-width="0"/>
          <path d="M116.87,94.54c0-4.58,3.22-7.81,7.73-7.81s7.8,3.23,7.8,7.81-3.22,7.81-7.8,7.81-7.73-3.23-7.73-7.81ZM130.3,94.54c0-3.43-2.31-5.89-5.7-5.89s-5.63,2.46-5.63,5.89,2.31,5.89,5.63,5.89,5.7-2.42,5.7-5.89Z" fill="#242265" stroke-width="0"/>
          <path d="M145.38,87.31l-.61,1.82c-.58-.2-1.15-.37-2-.37-2.44,0-4.1,1.72-4.1,4.61v8.61h-2.07v-14.87h1.56l.41,2.19c.85-1.55,2.27-2.49,4.37-2.49.95,0,1.76.2,2.44.5Z" fill="#242265" stroke-width="0"/>
          <path d="M164.47,87.31l-.61,1.82c-.58-.2-1.15-.37-2-.37-2.44,0-4.1,1.72-4.1,4.61v8.61h-2.07v-14.87h1.56l.41,2.19c.85-1.55,2.27-2.49,4.37-2.49.95,0,1.76.2,2.44.5Z" fill="#242265" stroke-width="0"/>
          <path d="M179.89,93.94c0,.47-.03.94-.1,1.45h-12c.34,3.16,2.78,5.05,5.59,5.05,2.1,0,3.42-.64,4.58-1.82l1.19,1.48c-1.53,1.45-3.36,2.25-5.73,2.25-4.54,0-7.73-3.23-7.73-7.84,0-4.31,3.12-7.77,7.56-7.77,4.17,0,6.65,2.86,6.65,7.2ZM167.86,93.57h10c-.07-3.16-1.9-4.91-4.64-4.91s-4.95,1.95-5.36,4.91Z" fill="#242265" stroke-width="0"/>
          <path d="M194.91,92.08v9.89h-1.53l-.37-2.69c-1.08,1.78-3.02,2.96-5.66,2.96-2.92,0-4.78-1.58-4.78-4.14,0-3.33,3.08-5.25,7.49-5.25,1.12,0,1.97.03,2.75.13v-1.01c0-2.09-1.49-3.13-3.8-3.13-1.63,0-3.29.47-4.95,1.25l-.71-1.75c2.03-.94,3.97-1.41,5.87-1.41,3.42,0,5.7,1.78,5.7,5.15ZM192.81,94.71c-.81-.1-1.46-.13-2.44-.13-3.53,0-5.63,1.21-5.63,3.4,0,1.48,1.08,2.36,2.95,2.36,3.08,0,5.02-2.22,5.12-5.62Z" fill="#242265" stroke-width="0"/>
          <path d="M198.91,94.51c0-4.91,3.59-7.74,7.66-7.74,2.17,0,3.83.67,5.36,2.02l-1.19,1.41c-1.22-1.04-2.41-1.51-4.17-1.51-3.12,0-5.56,2.32-5.56,5.82s2.41,5.92,5.53,5.92c2.03,0,3.25-.64,4.48-1.78l1.15,1.48c-1.56,1.45-3.19,2.22-5.8,2.22-3.73,0-7.46-2.73-7.46-7.84Z" fill="#242265" stroke-width="0"/>
          <path d="M216.64,97.77v-8.85l-2.92-.13v-1.68h2.92v-4.95h2.07v4.95h5.36v1.82h-5.36v8.85c0,1.88.78,2.52,2.1,2.52,1.05,0,2-.34,2.95-1.01l.92,1.55c-1.12.84-2.51,1.41-4.07,1.41-2.44,0-3.97-1.41-3.97-4.48Z" fill="#242265" stroke-width="0"/>
          <path d="M248.68,77.85v24.12h-2.07v-21.23c-1.46-1.01-2.71-1.38-4.24-1.38-2.37,0-3.73,1.31-3.73,3.84v3.9h4.92v1.82h-4.92v13.05h-2.07v-13.05h-3.12v-1.82h3.12v-3.9c0-3.23,1.76-5.75,5.56-5.75,1.66,0,3.12.4,4.65,1.51l.24-1.11h1.66Z" fill="#242265" stroke-width="0"/>
          <path d="M252.88,94.54c0-4.58,3.22-7.81,7.73-7.81s7.8,3.23,7.8,7.81-3.22,7.81-7.8,7.81-7.73-3.23-7.73-7.81ZM266.3,94.54c0-3.43-2.31-5.89-5.7-5.89s-5.63,2.46-5.63,5.89,2.31,5.89,5.63,5.89,5.7-2.42,5.7-5.89Z" fill="#242265" stroke-width="0"/>
          <path d="M291.15,87.11v.07l-5.26,14.97h-.64l-4.64-10.29-4.71,10.29h-.61l-5.25-14.97v-.07h2.1l3.12,8.92c.2.64.37,1.18.58,1.92.24-.71.47-1.25.75-1.85l3.76-8.18h.51l3.73,8.14c.3.61.54,1.18.78,1.88.2-.71.37-1.31.61-1.95l3.08-8.88h2.1Z" fill="#242265" stroke-width="0"/>
        </g>
      </g>
    </g>
  </g>
</svg>