<?xml version="1.0" encoding="UTF-8"?>
<svg id="Ebene_2" data-name="Ebene 2" xmlns="http://www.w3.org/2000/svg" width="739.18" height="94.03" viewBox="0 0 739.18 94.03">
  <g id="yFiles_Logos" data-name="yFiles Logos">
    <g id="react_flow_1zeilig" data-name="react flow 1zeilig">
      <g id="yFiles">
        <path d="M0,37.57l.11,19.41c.06,9.86,5.37,18.94,13.94,23.82l16.87,9.61c8.56,4.88,19.09,4.81,27.59-.16l16.76-9.81c8.51-4.98,13.72-14.12,13.66-23.98l-.11-19.41c-.06-9.86-5.37-18.94-13.94-23.81L58.01,3.62c-8.56-4.88-19.08-4.81-27.59.16L13.66,13.58C5.15,18.57-.06,27.71,0,37.57" fill="#242265" stroke-width="0"/>
        <g>
          <g>
            <path d="M54.17,66.18c.78,1.06,1.55,2.02,2.01,3.16.88,2.26.67,4.36-.91,6.25-1.8,2.16-5.18,2.45-7.38.7-1.63-1.29-2.25-3.02-2.18-5.03.05-1.39.58-2.65,1.13-3.89.51-1.16,1.06-2.31,1.43-3.52.44-1.49.54-3.02.43-4.57-.11-1.56-.26-3.13-.53-4.66-.38-2.24-1.21-4.27-2.79-5.99-1.46-1.6-3.29-2.62-5.24-3.45-.86-.36-1.71-.76-2.59-1.11-2.05-.82-4.15-1.08-6.33-.86-1.37.14-2.73.36-4.11.37-1.66.01-3.18-.44-4.46-1.54-1.9-1.62-2.58-4.66-1.09-7.01,1.67-2.67,5.1-3.36,7.81-1.67.91.57,1.67,1.29,2.31,2.17.55.76,1.11,1.52,1.67,2.28.94,1.27,2.04,2.39,3.34,3.28.92.63,1.95,1.09,2.97,1.55.99.45,2,.88,3.01,1.27,1.77.69,3.61,1.02,5.51.79,1.64-.2,3.2-.68,4.62-1.53,1.21-.73,2.35-1.59,3.49-2.44,1.2-.89,2.35-1.86,3.26-3.08.69-.93,1.23-1.96,1.71-3.01.65-1.41,1.14-2.9,2.08-4.16.97-1.31,2.21-2.24,3.82-2.54,1.96-.37,3.67.15,5.05,1.61,1.24,1.31,1.68,2.9,1.39,4.63-.3,1.81-1.36,3.18-2.99,4.07-1.53.85-3.23,1-4.93,1.15-1.75.16-3.49.41-5.11,1.17-.57.27-1.1.59-1.63.91-1.15.7-2.25,1.5-3.3,2.34-1.37,1.08-2.71,2.2-3.6,3.75-.69,1.2-1.22,2.46-1.45,3.83-.25,1.49-.21,2.98-.05,4.47.13,1.21.24,2.44.45,3.65.3,1.65.9,3.19,1.79,4.61.43.75.97,1.42,1.38,2.05" fill="#242265" stroke-width="0"/>
            <path d="M59.11,54.36c1.31.2,2.53.32,3.65.81,2.22.97,3.56,2.61,3.77,5.06.24,2.8-1.94,5.39-4.72,5.72-2.08.24-3.72-.54-5.1-2.03-.95-1.02-1.46-2.28-1.96-3.55-.45-1.18-.87-2.39-1.47-3.5-.74-1.36-1.74-2.52-2.93-3.54-1.18-1.02-2.4-2.03-3.68-2.93-1.86-1.31-3.88-2.16-6.21-2.27-2.18-.1-4.18.47-6.15,1.27-.87.35-1.75.67-2.62,1.04-2.03.86-3.7,2.18-5.08,3.87-.87,1.06-1.67,2.19-2.65,3.17-1.17,1.18-2.56,1.94-4.24,2.07-2.49.19-5.12-1.48-5.74-4.18-.7-3.07,1.23-5.99,4.34-6.71,1.05-.24,2.11-.27,3.16-.1.93.15,1.87.29,2.8.43,1.56.23,3.13.24,4.67-.04,1.1-.2,2.15-.6,3.2-1,1.02-.38,2.03-.78,3.03-1.22,1.74-.76,3.27-1.82,4.46-3.34,1.02-1.3,1.77-2.75,2.18-4.35.34-1.37.53-2.79.74-4.18.22-1.48.35-2.98.13-4.47-.17-1.15-.51-2.26-.91-3.34-.54-1.45-1.23-2.85-1.47-4.41-.24-1.61-.02-3.14.91-4.49,1.12-1.64,2.7-2.49,4.71-2.43,1.8.05,3.25.86,4.26,2.29,1.07,1.5,1.28,3.21.77,4.99-.48,1.68-1.57,3-2.68,4.3-1.13,1.35-2.19,2.76-2.79,4.44-.21.59-.36,1.19-.51,1.8-.32,1.31-.52,2.65-.68,3.99-.2,1.73-.36,3.47.11,5.19.36,1.34.87,2.61,1.68,3.74.88,1.23,1.96,2.25,3.13,3.2.95.77,1.9,1.55,2.9,2.26,1.38.96,2.89,1.61,4.53,2,.86.19,1.71.28,2.45.43" fill="#242265" stroke-width="0"/>
          </g>
          <g>
            <path d="M54.17,66.18c.78,1.06,1.55,2.02,2.01,3.16.88,2.26.67,4.36-.91,6.25-1.8,2.16-5.18,2.45-7.38.7-1.63-1.29-2.25-3.02-2.18-5.03.05-1.39.58-2.65,1.13-3.89.51-1.16,1.06-2.31,1.43-3.52.44-1.49.54-3.02.43-4.57-.11-1.56-.26-3.13-.53-4.66-.38-2.24-1.21-4.27-2.79-5.99-1.46-1.6-3.29-2.62-5.24-3.45-.86-.36-1.71-.76-2.59-1.11-2.05-.82-4.15-1.08-6.33-.86-1.37.14-2.73.36-4.11.37-1.66.01-3.18-.44-4.46-1.54-1.9-1.62-2.58-4.66-1.09-7.01,1.67-2.67,5.1-3.36,7.81-1.67.91.57,1.67,1.29,2.31,2.17.55.76,1.11,1.52,1.67,2.28.94,1.27,2.04,2.39,3.34,3.28.92.63,1.95,1.09,2.97,1.55.99.45,2,.88,3.01,1.27,1.77.69,3.61,1.02,5.51.79,1.64-.2,3.2-.68,4.62-1.53,1.21-.73,2.35-1.59,3.49-2.44,1.2-.89,2.35-1.86,3.26-3.08.69-.93,1.23-1.96,1.71-3.01.65-1.41,1.14-2.9,2.08-4.16.97-1.31,2.21-2.24,3.82-2.54,1.96-.37,3.67.15,5.05,1.61,1.24,1.31,1.68,2.9,1.39,4.63-.3,1.81-1.36,3.18-2.99,4.07-1.53.85-3.23,1-4.93,1.15-1.75.16-3.49.41-5.11,1.17-.57.27-1.1.59-1.63.91-1.15.7-2.25,1.5-3.3,2.34-1.37,1.08-2.71,2.2-3.6,3.75-.69,1.2-1.22,2.46-1.45,3.83-.25,1.49-.21,2.98-.05,4.47.13,1.21.24,2.44.45,3.65.3,1.65.9,3.19,1.79,4.61.43.75.97,1.42,1.38,2.05" fill="#00d8ff" stroke-width="0"/>
            <path d="M59.11,54.36c1.31.2,2.53.32,3.65.81,2.22.97,3.56,2.61,3.77,5.06.24,2.8-1.94,5.39-4.72,5.72-2.08.24-3.72-.54-5.1-2.03-.95-1.02-1.46-2.28-1.96-3.55-.45-1.18-.87-2.39-1.47-3.5-.74-1.36-1.74-2.52-2.93-3.54-1.18-1.02-2.4-2.03-3.68-2.93-1.86-1.31-3.88-2.16-6.21-2.27-2.18-.1-4.18.47-6.15,1.27-.87.35-1.75.67-2.62,1.04-2.03.86-3.7,2.18-5.08,3.87-.87,1.06-1.67,2.19-2.65,3.17-1.17,1.18-2.56,1.94-4.24,2.07-2.49.19-5.12-1.48-5.74-4.18-.7-3.07,1.23-5.99,4.34-6.71,1.05-.24,2.11-.27,3.16-.1.93.15,1.87.29,2.8.43,1.56.23,3.13.24,4.67-.04,1.1-.2,2.15-.6,3.2-1,1.02-.38,2.03-.78,3.03-1.22,1.74-.76,3.27-1.82,4.46-3.34,1.02-1.3,1.77-2.75,2.18-4.35.34-1.37.53-2.79.74-4.18.22-1.48.35-2.98.13-4.47-.17-1.15-.51-2.26-.91-3.34-.54-1.45-1.23-2.85-1.47-4.41-.24-1.61-.02-3.14.91-4.49,1.12-1.64,2.7-2.49,4.71-2.43,1.8.05,3.25.86,4.26,2.29,1.07,1.5,1.28,3.21.77,4.99-.48,1.68-1.57,3-2.68,4.3-1.13,1.35-2.19,2.76-2.79,4.44-.21.59-.36,1.19-.51,1.8-.32,1.31-.52,2.65-.68,3.99-.2,1.73-.36,3.47.11,5.19.36,1.34.87,2.61,1.68,3.74.88,1.23,1.96,2.25,3.13,3.2.95.77,1.9,1.55,2.9,2.26,1.38.96,2.89,1.61,4.53,2,.86.19,1.71.28,2.45.43" fill="#00d8ff" stroke-width="0"/>
          </g>
        </g>
      </g>
      <g>
        <path d="M130.48,37.89v.16l-13.94,35.13h-6.15v-.11l5.25-12.14-10.12-22.89v-.16h6.25l5.03,12.08c.58,1.43,1.11,2.86,1.59,4.61.48-1.75.95-3.18,1.43-4.61l4.61-12.08h6.04Z" fill="#242265" stroke-width="0"/>
        <path d="M135.36,25.49h22.52v5.78h-16.27v10.39h14.57v5.62h-14.57v14.26h-6.25V25.49Z" fill="#242265" stroke-width="0"/>
        <path d="M162.39,29.51c0-1.91,1.38-3.44,3.6-3.44s3.6,1.54,3.6,3.5-1.43,3.39-3.6,3.39-3.6-1.54-3.6-3.44ZM163.08,37.89h5.78v23.64h-5.78v-23.64Z" fill="#242265" stroke-width="0"/>
        <path d="M175.64,23.37h5.78l.05,38.16h-5.83V23.37Z" fill="#242265" stroke-width="0"/>
        <path d="M209.71,48.86c0,.85-.11,1.8-.21,2.76h-16.96c.74,3.82,3.71,5.83,7.53,5.83,2.7,0,4.61-.79,6.25-2.23l2.44,3.71c-2.7,2.17-5.56,3.29-9.22,3.29-7.58,0-12.77-5.14-12.77-12.56,0-6.94,5.03-12.4,12.19-12.4,6.68,0,10.76,4.5,10.76,11.61ZM192.6,47.69h11.66c-.16-3.76-2.38-5.72-5.41-5.72s-5.62,2.07-6.25,5.72Z" fill="#242265" stroke-width="0"/>
        <path d="M213.06,59.46l2.28-4.08c2.01,1.27,4.24,1.96,6.46,1.96s3.5-.95,3.5-2.44c0-1.75-2.23-2.6-4.56-3.5-3.76-1.43-6.68-3.39-6.68-7.26,0-4.35,3.87-6.62,8.37-6.62,2.7,0,5.19.64,7.74,2.12l-2.01,3.87c-1.75-.9-3.66-1.38-5.25-1.38-1.8,0-3.34.53-3.34,2.01s1.75,2.44,4.29,3.34c4.13,1.54,7.1,3.5,7.1,7.42,0,4.4-3.55,7.15-8.74,7.15-3.5,0-6.41-.85-9.17-2.6Z" fill="#242265" stroke-width="0"/>
        <path d="M247.88,23.37h5.78l.05,38.16h-5.83V23.37Z" fill="#242265" stroke-width="0"/>
        <path d="M279.67,46.26v15.26h-3.87l-1.06-3.55c-1.75,2.49-4.56,4.03-8.43,4.03-4.34,0-7.42-2.44-7.42-6.62,0-5.41,4.77-8.37,11.98-8.37,1.22,0,2.12.05,2.97.11v-1.06c0-2.44-1.8-3.66-4.82-3.66-2.33,0-4.93.74-7.37,1.91l-1.64-4.4c3.5-1.59,6.73-2.44,9.91-2.44,6.04,0,9.75,3.07,9.75,8.8ZM274,50.87c-.95-.11-1.7-.16-2.76-.16-4.19,0-6.62,1.48-6.62,4.08,0,1.85,1.27,2.86,3.39,2.86,3.39,0,5.88-2.49,5.99-6.78Z" fill="#242265" stroke-width="0"/>
        <path d="M308.19,37.89v.16l-13.94,35.13h-6.15v-.11l5.25-12.14-10.12-22.89v-.16h6.25l5.03,12.08c.58,1.43,1.11,2.86,1.59,4.61.48-1.75.95-3.18,1.43-4.61l4.61-12.08h6.04Z" fill="#242265" stroke-width="0"/>
        <path d="M310.57,49.71c0-7.31,5.25-12.45,12.67-12.45s12.72,5.14,12.72,12.45-5.3,12.51-12.72,12.51-12.67-5.19-12.67-12.51ZM330.08,49.71c0-4.35-2.75-7.37-6.84-7.37s-6.84,3.02-6.84,7.37,2.81,7.37,6.84,7.37,6.84-3.02,6.84-7.37Z" fill="#242265" stroke-width="0"/>
        <path d="M362.19,37.89v23.64h-4.03l-1.17-3.66c-1.59,2.54-4.19,4.13-7.53,4.13-5.72,0-8.53-3.66-8.53-9.49v-14.63h5.83v14.1c0,2.92,1.11,4.82,4.13,4.82,3.6,0,5.51-3.07,5.51-6.68v-12.24h5.78Z" fill="#242265" stroke-width="0"/>
        <path d="M370.73,54.32v-11.5l-4.19-.32v-4.61h4.19l.16-7.58h5.62v7.58h7.31v4.93h-7.31v10.92c0,2.33,1.06,3.02,2.6,3.02,1.38,0,2.65-.37,3.97-1.22l1.85,4.35c-2.17,1.38-4.45,2.17-7.15,2.17-4.24,0-7.05-2.44-7.05-7.74Z" fill="#242265" stroke-width="0"/>
        <path d="M386.95,59.46l2.28-4.08c2.01,1.27,4.24,1.96,6.46,1.96s3.5-.95,3.5-2.44c0-1.75-2.23-2.6-4.56-3.5-3.76-1.43-6.68-3.39-6.68-7.26,0-4.35,3.87-6.62,8.37-6.62,2.7,0,5.19.64,7.74,2.12l-2.01,3.87c-1.75-.9-3.66-1.38-5.25-1.38-1.8,0-3.34.53-3.34,2.01s1.75,2.44,4.29,3.34c4.13,1.54,7.1,3.5,7.1,7.42,0,4.4-3.55,7.15-8.74,7.15-3.5,0-6.41-.85-9.17-2.6Z" fill="#242265" stroke-width="0"/>
        <path d="M424.2,40.96h-4.88v-2.86h4.88v-6.73c0-4.61,2.38-8.48,7.58-8.48,2.49,0,4.24.74,6.04,2.07l-1.48,2.33c-1.32-.9-2.49-1.38-4.19-1.38-2.86,0-4.72,1.85-4.72,5.46v6.73h7.68v2.86h-7.68v20.56h-3.23v-20.56Z" fill="#242265" stroke-width="0"/>
        <path d="M438.2,49.81c0-7.21,5.03-12.29,12.08-12.29s12.19,5.09,12.19,12.29-5.03,12.29-12.19,12.29-12.08-5.09-12.08-12.29ZM459.18,49.81c0-5.41-3.6-9.27-8.9-9.27s-8.8,3.87-8.8,9.27,3.6,9.27,8.8,9.27,8.9-3.82,8.9-9.27Z" fill="#242265" stroke-width="0"/>
        <path d="M482.77,38.42l-.95,2.86c-.9-.32-1.8-.58-3.13-.58-3.82,0-6.41,2.7-6.41,7.26v13.57h-3.23v-23.42h2.44l.64,3.44c1.32-2.44,3.55-3.92,6.84-3.92,1.48,0,2.76.32,3.82.79Z" fill="#242265" stroke-width="0"/>
        <path d="M513.4,38.42l-.95,2.86c-.9-.32-1.8-.58-3.13-.58-3.82,0-6.41,2.7-6.41,7.26v13.57h-3.23v-23.42h2.44l.64,3.44c1.33-2.44,3.55-3.92,6.84-3.92,1.48,0,2.75.32,3.82.79Z" fill="#242265" stroke-width="0"/>
        <path d="M538.73,48.86c0,.74-.05,1.48-.16,2.28h-18.76c.53,4.98,4.35,7.95,8.74,7.95,3.29,0,5.35-1.01,7.15-2.86l1.85,2.33c-2.38,2.28-5.25,3.55-8.96,3.55-7.1,0-12.08-5.09-12.08-12.35,0-6.78,4.88-12.24,11.82-12.24,6.52,0,10.39,4.5,10.39,11.34ZM519.92,48.27h15.63c-.11-4.98-2.97-7.74-7.26-7.74s-7.74,3.07-8.37,7.74Z" fill="#242265" stroke-width="0"/>
        <path d="M562.42,45.94v15.58h-2.38l-.58-4.24c-1.7,2.81-4.72,4.66-8.85,4.66-4.56,0-7.47-2.49-7.47-6.52,0-5.25,4.82-8.27,11.71-8.27,1.75,0,3.07.05,4.29.21v-1.59c0-3.29-2.33-4.93-5.94-4.93-2.54,0-5.14.74-7.74,1.96l-1.11-2.76c3.18-1.48,6.2-2.23,9.17-2.23,5.35,0,8.9,2.81,8.9,8.11ZM559.14,50.08c-1.27-.16-2.28-.21-3.82-.21-5.51,0-8.8,1.91-8.8,5.35,0,2.33,1.7,3.71,4.61,3.71,4.82,0,7.84-3.5,8-8.85Z" fill="#242265" stroke-width="0"/>
        <path d="M568.68,49.76c0-7.74,5.62-12.19,11.98-12.19,3.39,0,5.99,1.06,8.37,3.18l-1.86,2.23c-1.91-1.64-3.76-2.38-6.52-2.38-4.88,0-8.69,3.66-8.69,9.17s3.76,9.33,8.64,9.33c3.18,0,5.09-1.01,6.99-2.81l1.8,2.33c-2.44,2.28-4.98,3.5-9.06,3.5-5.83,0-11.66-4.29-11.66-12.35Z" fill="#242265" stroke-width="0"/>
        <path d="M596.4,54.9v-13.94l-4.56-.21v-2.65h4.56v-7.79h3.23v7.79h8.37v2.86h-8.37v13.94c0,2.97,1.22,3.97,3.29,3.97,1.64,0,3.13-.53,4.61-1.59l1.43,2.44c-1.75,1.32-3.92,2.23-6.36,2.23-3.82,0-6.2-2.23-6.2-7.05Z" fill="#242265" stroke-width="0"/>
        <path d="M646.48,23.53v38h-3.23V28.08c-2.28-1.59-4.24-2.17-6.62-2.17-3.71,0-5.83,2.07-5.83,6.04v6.15h7.68v2.86h-7.68v20.56h-3.23v-20.56h-4.88v-2.86h4.88v-6.15c0-5.09,2.76-9.06,8.69-9.06,2.6,0,4.88.64,7.26,2.38l.37-1.75h2.6Z" fill="#242265" stroke-width="0"/>
        <path d="M653.05,49.81c0-7.21,5.03-12.29,12.08-12.29s12.19,5.09,12.19,12.29-5.04,12.29-12.19,12.29-12.08-5.09-12.08-12.29ZM674.04,49.81c0-5.41-3.6-9.27-8.9-9.27s-8.8,3.87-8.8,9.27,3.6,9.27,8.8,9.27,8.9-3.82,8.9-9.27Z" fill="#242265" stroke-width="0"/>
        <path d="M713.89,38.1v.11l-8.21,23.58h-1.01l-7.26-16.22-7.37,16.22h-.95l-8.21-23.58v-.11h3.29l4.88,14.04c.32,1.01.58,1.85.9,3.02.37-1.11.74-1.96,1.17-2.91l5.88-12.88h.79l5.83,12.82c.48.95.85,1.85,1.22,2.97.32-1.11.58-2.07.95-3.07l4.82-13.99h3.29Z" fill="#242265" stroke-width="0"/>
      </g>
    </g>
  </g>
</svg>